<?xml version="1.0" encoding="utf-8"?>
<!-- Generator: Adobe Illustrator 16.0.0, SVG Export Plug-In . SVG Version: 6.00 Build 0)  -->
<!DOCTYPE svg PUBLIC "-//W3C//DTD SVG 1.1//EN" "http://www.w3.org/Graphics/SVG/1.1/DTD/svg11.dtd">
<svg version="1.1" id="Layer_1" xmlns="http://www.w3.org/2000/svg" xmlns:xlink="http://www.w3.org/1999/xlink" x="0px" y="0px"
	 width="1125.21px" height="1125.357px" viewBox="0 0 1125.21 1125.357" enable-background="new 0 0 1125.21 1125.357"
	 xml:space="preserve">
<g>
	<path fill-rule="evenodd" clip-rule="evenodd" fill="#FEFEFE" d="M90.105,443.623c-18.61-36.173-20.939-73.038-3.834-110.052
		c17.08-36.962,46.538-59.266,85.977-68.755c-9.354-44.084-0.182-83.381,31.604-115.77c31.859-32.463,71.075-42.029,115.607-33.32
		c0.741-3.859,1.451-7.738,2.234-11.602c10.479-51.671,54.31-94.213,106.593-102.318c39.891-6.184,75.8,3.652,106.877,29.785
		c6.4,5.382,12.994,10.035,21.539,11.273c11.465,1.663,21.557-1.245,30.188-8.89c16.762-14.849,35.89-25.118,57.704-30.343
		c71.842-17.207,143.427,28.407,158.779,101.203c0.743,3.528,1.414,7.072,2.18,10.91c44.161-8.822,83.396,0.742,115.318,33.04
		c31.921,32.298,41.231,71.554,31.896,116.017c39.281,9.389,68.865,31.72,85.976,68.769c17.093,37.011,14.78,73.875-3.837,109.999
		c6.432,3.503,12.98,6.618,19.067,10.462c28.438,17.959,49.951,42.143,61.125,73.984c21.4,60.989,8.609,114.878-36.256,161.223
		c-2.09,2.158-2.694,3.763-1.57,6.731c9.325,24.635,12.724,50.051,8.683,76.177c-5.766,37.27-23.069,68.234-51.799,92.713
		c-11.872,10.116-25.115,18.063-39.6,23.848c-2.359,0.942-2.529,2.32-2.198,4.302c3.857,23.119,0.214,45.082-11.119,65.506
		c-16.27,29.317-41.151,46.876-74.236,52.674c-2.244,0.394-3.909,0.911-5.096,3.446c-24.589,52.54-64.535,88.153-120.45,103.295
		c-67.774,18.354-128.231,2.455-179.929-45.135c-23.365-21.51-55.134-21.761-78.075,0.135
		c-29.359,28.021-64.144,45.495-104.395,50.375c-65.288,7.916-120.48-12.892-165.161-61.202
		c-12.993-14.049-23.09-30.078-30.828-47.552c-1.076-2.431-2.66-2.977-4.783-3.31c-22.596-3.537-42.056-13.427-57.765-29.944
		c-23.388-24.59-32.897-53.89-27.901-87.637c0.402-2.717-0.062-4.019-2.888-5.271c-49.752-22.056-80.108-59.684-90.081-113.337
		c-5.06-27.223-1.548-53.689,8.246-79.41c1.012-2.658,0.568-4.174-1.439-6.106c-24.364-23.468-39.684-51.938-44.629-85.348
		c-6.959-47.017,5.993-88.402,37.569-123.948c13.651-15.368,30.122-26.858,48.644-35.552
		C88.702,444.379,89.338,444.021,90.105,443.623z M228.71,806.621c-3.378-14.158-4.626-27.745-3.024-41.568
		c1.697-14.646,5.61-28.616,12.421-41.686c3.405-6.534,9.25-9.826,16.546-9.749c7.297,0.077,12.941,3.563,16.371,10.083
		c3.441,6.544,2.074,12.836-0.785,19.374c-12.435,28.442-10.368,56.011,6.494,82.059c11.843,18.295,28.966,29.549,49.972,35.157
		c10.709,2.859,16.37,12.765,13.622,23.103c-2.641,9.936-12.76,15.723-23.181,13.034c-29.089-7.504-52.254-23.646-69.519-48.195
		c-1.679-2.387-3.518-3.764-6.396-3.673c-6.568,0.209-13.289-0.384-19.678,0.802c-30.218,5.605-52.793,32.853-52.85,63.116
		c-0.061,32.134,21.645,59.096,52.628,65.257c3.537,0.703,7.158,1.252,10.754,1.347c12.517,0.329,16.844,3.37,21.371,15.293
		c8.665,22.827,21.716,42.832,40.251,58.729c43.782,37.548,93.482,47.796,148.556,30.422c22.183-6.998,40.863-19.848,57.744-35.731
		c19.727-18.562,43.614-26.267,70.44-24.182c22.36,1.737,41.295,11.241,57.541,26.719c25.592,24.381,56.156,38.129,91.453,40.713
		c45.151,3.307,84.055-11.233,116.672-42.388c16.22-15.491,27.97-34.084,35.748-55.164c3.716-10.067,9.45-14.3,19.069-14.354
		c41.595-0.236,72.44-38.437,63.928-79.169c-6.44-30.819-34.865-53.206-66.155-52.099c-5.387,0.191-9.501,1.649-13.106,6.644
		c-17.077,23.656-40.063,38.974-68.426,46.02c-12.765,3.172-24.493-6.939-23.333-19.914c0.758-8.467,6.392-14.245,16.533-16.959
		c41.768-11.171,68.532-53.204,61.019-95.531c-1.724-9.705-5.463-18.582-9.428-27.488c-4.029-9.049,0.121-19.39,9.017-23.761
		c8.837-4.345,19.668-1.202,24.344,7.501c11.388,21.197,16.458,43.798,14.091,67.859c-0.594,6.033-1.764,12.011-2.713,18.306
		c34.778,3.015,61.886,19.11,81.208,47.947c0.696-0.166,1.079-0.199,1.413-0.345c40.819-17.769,64.933-48.434,69.979-92.857
		c3.687-32.453-6.193-61.139-27.492-85.842c-7.311-8.479-16.116-15.22-25.386-21.464c-8.519-5.738-10.498-17.159-4.903-25.525
		c5.683-8.497,16.761-11.028,25.393-5.45c5.649,3.651,11.347,7.397,16.328,11.874c8.147,7.32,15.728,15.271,23.703,23.107
		c-0.252,0.147,0.125,0.029,0.356-0.222c18.741-20.349,29.182-44.342,30.181-71.972c1.103-30.528-8.53-57.547-29.255-80.16
		c-19.823-21.631-44.661-33.437-73.854-36.181c-17.088-1.607-33.547,0.965-49.662,6.742c-9.88,3.541-20.412-1.602-23.877-11.11
		c-3.564-9.778,1.251-20.275,11.259-24.083c4.537-1.726,9.194-3.196,13.886-4.449c18.814-5.023,37.914-6.047,57.21-3.682
		c2.149,0.264,3.687,0.057,5.028-2.008c11.685-18.001,16.706-37.584,13.456-58.879c-6.323-41.428-41.229-71.571-83.242-71.89
		c-17.13-0.129-24.704-17.177-18.302-29.049c7.635-14.159,9.847-29.666,8.116-45.764c-5.503-51.193-55.343-85.682-105.066-72.39
		c-24.466,6.54-42.604,21.222-54.25,43.765c-2.522,4.882-6.024,8.646-11.325,10.264c-7.612,2.323-14.454,0.68-19.789-5.285
		c-5.552-6.209-6.442-13.444-2.819-20.897c9.377-19.286,23.011-34.976,40.783-46.972c2.418-1.633,3.184-3.314,3.019-6.092
		c-1.357-22.766-9.429-42.749-24.841-59.588c-15.121-16.522-33.767-26.919-56.04-29.724c-29.106-3.665-54.677,4.597-76.751,24.094
		c-28.105,24.823-70.229,24.397-98.19-0.691c-30.994-27.809-75.693-32.498-111.156-10.722
		c-28.218,17.327-43.113,43.217-45.617,76.256c-0.251,3.316,0.704,5.36,3.611,7.319c14.819,9.988,26.772,22.776,35.966,38.121
		c3.437,5.736,4.188,11.737,1.438,17.904c-2.939,6.591-8.204,10.374-15.325,11.052c-8.324,0.793-14.335-3.058-18.607-10.105
		c-24.447-40.341-75.748-53.903-115.772-29.565c-30.109,18.309-43.598,45.95-40.764,81.282c0.882,10.996,4.952,20.994,9.226,31.021
		c5.305,12.445-3.707,25.542-17.183,25.742c-4.863,0.073-9.769,0.182-14.573,0.857c-60.526,8.511-91.782,78.941-57.636,129.591
		c1.479,2.194,3.036,2.494,5.305,2.163c20.747-3.032,41.093-0.908,61.124,4.925c11.12,3.238,16.949,13.219,13.905,23.627
		c-3.025,10.346-13.318,15.543-24.471,12.285c-19.745-5.77-39.614-6.306-59.574-1.323c-66.42,16.584-102.664,87.466-77.24,151.121
		c5.28,13.22,12.988,24.925,22.683,35.063c4.952-5.369,9.513-10.871,14.654-15.766c9.886-9.413,25.661-5.637,30.375,7.129
		c2.98,8.066,0.475,14.798-5.353,20.787c-20.224,20.785-31.861,45.648-32.879,74.666c-1.325,37.764,13.113,68.813,42.502,92.699
		c8.848,7.192,18.681,12.769,29.618,16.738c8.983-14.077,20.522-25.307,34.707-33.747
		C196.207,812.396,211.737,807.81,228.71,806.621z"/>
	<path fill-rule="evenodd" clip-rule="evenodd" fill="#FEFEFE" d="M637.206,367.607c1.647-44.419,19.021-78.142,53.584-102.683
		c8.621-6.122,20.165-4.008,26.262,4.443c6.003,8.319,4.1,19.993-4.675,26.171c-17.307,12.186-29.264,28.158-34.492,48.729
		c-6.829,26.866-1.823,51.625,15.274,73.416c8.189,10.438,5.696,22.125-1.153,27.824c-8.244,6.857-19.748,6.003-26.712-2.437
		c-13.026-15.789-21.587-33.788-25.383-53.894C638.436,381.36,637.906,373.366,637.206,367.607z"/>
	<path fill-rule="evenodd" clip-rule="evenodd" fill="#FEFEFE" d="M487.587,364.408c-0.511,29.563-9.115,54.82-26.489,76.981
		c-7.511,9.581-18.706,11.466-27.255,4.772c-8.868-6.943-9.847-18.194-2.292-27.824c12.483-15.912,18.89-33.981,18.361-54.158
		c-0.68-26.021-11.299-47.477-31.359-64.113c-4.383-3.636-8.625-7.152-9.934-13.093c-1.66-7.538,1.328-15.488,7.593-19.715
		c6.566-4.43,15.183-4.557,21.421,0.151c26.83,20.247,43.078,46.934,48.377,80.195c0.275,1.723,0.57,3.45,0.715,5.186
		C487.092,357.14,487.376,361.498,487.587,364.408z"/>
	<path fill-rule="evenodd" clip-rule="evenodd" fill="#FEFEFE" d="M637.299,927.536c1.636-41.902,18.996-75.506,53.412-99.987
		c8.753-6.227,20.52-4.021,26.499,4.625c5.866,8.48,3.801,19.852-5.051,26.114c-19.722,13.952-31.957,32.636-36.008,56.499
		c-3.089,18.198,0.094,35.464,8.004,52.038c5.461,11.44-0.451,23.644-12.624,26.6c-7.528,1.828-16.163-1.711-19.918-8.593
		c-7.499-13.742-11.823-28.499-13.332-44.071C637.859,936.415,637.628,932.05,637.299,927.536z"/>
	<path fill-rule="evenodd" clip-rule="evenodd" fill="#FEFEFE" d="M487.563,926.547c-0.313,21.272-4.467,39.846-13.562,57.194
		c-4.302,8.204-13.148,11.947-21.83,9.42c-8.404-2.445-14.044-10.414-13.328-19.34c0.204-2.539,0.995-5.187,2.138-7.475
		c18.974-38.007,6.826-82.146-25.437-106.24c-6.104-4.56-8.585-10.949-6.999-18.522c1.607-7.675,6.404-12.576,13.983-14.493
		c5.485-1.388,10.751-0.438,15.278,3.014c28.68,21.87,45.175,50.674,48.997,86.616C487.212,920.566,487.402,924.434,487.563,926.547
		z"/>
	<path fill-rule="evenodd" clip-rule="evenodd" fill="#FEFEFE" d="M320.376,617.819c48.82,2.454,85.728,23.77,109.097,67.037
		c5.365,9.933,1.911,20.962-7.628,26.013c-9.349,4.95-20.414,1.236-25.67-8.809c-13.449-25.701-34.676-40.813-63.089-45.381
		c-8.005-1.286-16.438-0.692-24.599-0.031c-10.967,0.888-20.116-5.634-21.718-16.467c-1.45-9.792,5.796-19.136,16.276-20.628
		C308.841,618.728,314.705,618.372,320.376,617.819z"/>
	<path fill-rule="evenodd" clip-rule="evenodd" fill="#FEFEFE" d="M809.459,617.648c7.283,0.737,13.141,1.132,18.938,1.959
		c10.367,1.48,17.35,10.682,16.057,20.812c-1.291,10.122-10.878,17.506-21.215,16.168c-30.519-3.95-56.209,5.389-76.615,28.369
		c-4.66,5.249-8.193,11.581-11.762,17.698c-7.073,12.126-22.78,13.98-31.416,3.311c-4.908-6.065-5.871-13.01-2.264-19.993
		c17.711-34.285,45.402-56.019,82.989-64.735C792.864,619.22,801.901,618.684,809.459,617.648z"/>
	<path fill-rule="evenodd" clip-rule="evenodd" fill="#FEFEFE" d="M289.459,395.305c10.405,0.025,18.367,7.9,18.583,18.96
		c0.251,12.792,2.795,24.971,8.395,36.491c8.006,16.472,20.1,29.032,36.295,37.542c5.726,3.008,10.6,6.637,12.385,13.19
		c2.119,7.777-0.07,14.415-6.128,19.515c-6.008,5.059-13.01,5.804-19.981,2.397c-22.477-10.983-40.108-27.29-52.55-49.05
		c-10.431-18.242-15.625-37.919-15.858-58.933C270.471,403.637,278.246,395.278,289.459,395.305z"/>
	<path fill-rule="evenodd" clip-rule="evenodd" fill="#FEFEFE" d="M852.991,423.105c-2.998,43.327-22.375,76.952-59.362,100.064
		c-10.312,6.443-21.795,3.864-27.326-5.747c-5.35-9.294-2.28-20.16,7.562-26.079c11.436-6.877,20.891-15.779,28.104-27
		c8.561-13.315,13.227-27.869,13.48-43.75c0.102-6.383,1.654-12.152,6.816-16.353c5.942-4.836,12.619-5.96,19.631-2.825
		c6.827,3.053,10.563,8.542,11.075,16.07C853.099,419.351,852.991,421.232,852.991,423.105z"/>
	<path fill-rule="evenodd" clip-rule="evenodd" fill="#FEFEFE" d="M562.125,150.017c-5.993,0-11.986,0.05-17.979-0.011
		c-10.888-0.111-19.184-8.313-19.136-18.842c0.048-10.505,8.384-18.588,19.335-18.635c12.11-0.052,24.221-0.053,36.331,0
		c10.946,0.047,19.286,8.143,19.331,18.647c0.045,10.527-8.259,18.723-19.156,18.83C574.61,150.067,568.366,150.017,562.125,150.017
		z"/>
	<path fill-rule="evenodd" clip-rule="evenodd" fill="#FEFEFE" d="M562.47,243.779c-6.117,0-12.235,0.053-18.353-0.011
		c-10.876-0.114-19.168-8.337-19.106-18.87c0.061-10.359,8.325-18.532,18.99-18.599c12.359-0.078,24.72-0.083,37.08,0.001
		c10.642,0.073,18.897,8.3,18.928,18.668c0.03,10.371-8.197,18.642-18.811,18.793C574.956,243.852,568.713,243.778,562.47,243.779z"
		/>
	<path fill-rule="evenodd" clip-rule="evenodd" fill="#FEFEFE" d="M562.888,300.043c5.992,0,11.985-0.044,17.978,0.009
		c10.873,0.099,19.188,8.312,19.142,18.839c-0.045,10.365-8.291,18.552-18.97,18.63c-12.359,0.089-24.721,0.091-37.08-0.001
		c-10.668-0.08-18.909-8.281-18.946-18.646c-0.038-10.526,8.274-18.728,19.148-18.822
		C550.402,299.998,556.645,300.043,562.888,300.043z"/>
	<path fill-rule="evenodd" clip-rule="evenodd" fill="#FEFEFE" d="M562.511,393.806c6.117,0,12.235-0.045,18.353,0.01
		c10.874,0.097,19.19,8.309,19.145,18.836c-0.045,10.365-8.291,18.554-18.969,18.631c-12.359,0.091-24.72,0.092-37.08,0
		c-10.669-0.08-18.91-8.28-18.949-18.644c-0.039-10.526,8.274-18.729,19.147-18.825
		C550.275,393.761,556.394,393.806,562.511,393.806z"/>
	<path fill-rule="evenodd" clip-rule="evenodd" fill="#FEFEFE" d="M562.133,525.069c-5.993,0-11.986,0.051-17.979-0.011
		c-10.891-0.11-19.188-8.306-19.143-18.834c0.044-10.506,8.377-18.596,19.326-18.644c12.11-0.053,24.221-0.052,36.33,0
		c10.949,0.047,19.291,8.136,19.34,18.64c0.049,10.527-8.254,18.729-19.148,18.837C574.618,525.121,568.375,525.069,562.133,525.069
		z"/>
	<path fill-rule="evenodd" clip-rule="evenodd" fill="#FEFEFE" d="M562.126,618.833c-5.993,0-11.987,0.05-17.979-0.012
		c-10.889-0.111-19.185-8.312-19.137-18.841c0.048-10.505,8.383-18.589,19.334-18.637c12.11-0.052,24.221-0.053,36.331,0
		c10.946,0.048,19.287,8.144,19.332,18.647c0.045,10.526-8.258,18.724-19.155,18.83C574.61,618.882,568.368,618.833,562.126,618.833
		z"/>
	<path fill-rule="evenodd" clip-rule="evenodd" fill="#FEFEFE" d="M562.378,712.595c-6.117,0-12.235,0.058-18.352-0.014
		c-10.842-0.126-19.12-8.418-19.015-18.96c0.102-10.346,8.383-18.448,19.081-18.51c12.235-0.07,24.47-0.064,36.705-0.003
		c10.9,0.055,19.225,8.246,19.211,18.767c-0.013,10.513-8.333,18.616-19.277,18.711
		C574.614,712.639,568.496,712.596,562.378,712.595z"/>
	<path fill-rule="evenodd" clip-rule="evenodd" fill="#FEFEFE" d="M562.613,768.858c6.118,0.001,12.236-0.05,18.353,0.012
		c10.686,0.107,18.957,8.205,19.042,18.563c0.086,10.533-8.208,18.834-19.072,18.906c-12.233,0.082-24.47,0.072-36.704,0.004
		c-10.923-0.062-19.229-8.232-19.221-18.754c0.009-10.517,8.332-18.638,19.25-18.723
		C550.378,768.819,556.496,768.858,562.613,768.858z"/>
	<path fill-rule="evenodd" clip-rule="evenodd" fill="#FEFEFE" d="M562.163,900.122c-5.993,0-11.986,0.049-17.979-0.011
		c-10.904-0.107-19.204-8.279-19.174-18.805c0.031-10.511,8.36-18.623,19.297-18.673c12.11-0.055,24.221-0.051,36.331-0.001
		c10.961,0.045,19.307,8.111,19.369,18.61c0.063,10.669-8.311,18.798-19.493,18.873C574.398,900.156,568.28,900.122,562.163,900.122
		z"/>
	<path fill-rule="evenodd" clip-rule="evenodd" fill="#FEFEFE" d="M562.126,993.884c-5.993,0-11.985,0.051-17.978-0.011
		c-10.889-0.111-19.184-8.311-19.137-18.841c0.048-10.505,8.382-18.589,19.333-18.637c12.11-0.052,24.22-0.053,36.331,0
		c10.947,0.048,19.287,8.142,19.333,18.646c0.046,10.526-8.258,18.724-19.154,18.831
		C574.611,993.935,568.369,993.884,562.126,993.884z"/>
</g>
</svg>
